# ProBuilder 5.0.4
# https://unity3d.com/unity/features/worldbuilding/probuilder
# 7/4/2022 7:32:18 PM

mtllib ./Map.mtl
o Map

g Map
v 0 0 0
v 0 0 60
v -45 0 0
v -45 0 60
v -45 25 0
v 0 25 60
v 0 25 0
v -45 25 60
v 0 6 0
v -45 6 0
v 0 6 60
v -45 6 60
v -15 6 0
v -15 0 0
v -30 0 0
v -30 6 0
v -15 6 60
v -15 0 60
v -30 6 60
v -30 0 60
v -15 6 -6
v -15 0 -6
v -30 6 -6
v -30 0 -6
v -15 6 66
v -15 0 66
v -30 6 66
v -30 0 66
v -14.6 0 0
v -14.63045 0 0.1530734
v -14.6 6.4 0
v -14.63045 6.369552 0.1530734
v -14.71716 0 0.2828427
v -14.71716 6.282843 0.2828427
v -14.84693 0 0.3695518
v -14.84693 6.153073 0.3695518
v -15 0 0.4
v -15 6 0.4
v -15.15307 0 0.3695518
v -15.15307 5.846927 0.3695518
v -15.28284 0 0.2828427
v -15.28284 5.717157 0.2828427
v -15.36955 0 0.1530733
v -15.36955 5.630448 0.1530733
v -15.4 0 -3.496911E-08
v -15.4 5.6 -3.496911E-08
v -15.36955 0 -0.1530734
v -15.36955 5.630448 -0.1530734
v -15.28284 0 -0.2828428
v -15.28284 5.717157 -0.2828428
v -15.15307 0 -0.3695519
v -15.15307 5.846927 -0.3695519
v -15 0 -0.4
v -15 6 -0.4
v -30 0 -0.4
v -29.84693 0 -0.3695518
v -30 6 -0.4
v -29.84693 5.846927 -0.3695518
v -29.71716 0 -0.2828427
v -29.71716 5.717157 -0.2828427
v -29.63045 0 -0.1530734
v -29.63045 5.630448 -0.1530734
v -29.6 0 0
v -29.6 5.6 0
v -29.63045 0 0.1530734
v -29.63045 5.630448 0.1530734
v -29.71716 0 0.2828427
v -29.71716 5.717157 0.2828427
v -29.84693 0 0.3695518
v -29.84693 5.846927 0.3695518
v -30 0 0.4
v -30 6 0.4
v -30.15307 0 0.3695518
v -30.15307 6.153073 0.3695518
v -30.28284 0 0.2828427
v -30.28284 6.282843 0.2828427
v -30.36955 0 0.1530733
v -30.36955 6.369552 0.1530733
v -30.4 0 -3.496911E-08
v -30.4 6.4 -3.496911E-08
v -15 0 60.4
v -15.15307 0 60.36955
v -15 6 60.4
v -15.15307 5.846927 60.36955
v -15.28284 0 60.28284
v -15.28284 5.717157 60.28284
v -15.36955 0 60.15307
v -15.36955 5.630448 60.15307
v -15.4 0 60
v -15.4 5.6 60
v -15.36955 0 59.84693
v -15.36955 5.630448 59.84693
v -15.28284 0 59.71716
v -15.28284 5.717157 59.71716
v -15.15307 0 59.63045
v -15.15307 5.846927 59.63045
v -15 0 59.6
v -15 6 59.6
v -14.84693 0 59.63045
v -14.84693 6.153073 59.63045
v -14.71716 0 59.71716
v -14.71716 6.282843 59.71716
v -14.63045 0 59.84693
v -14.63045 6.369552 59.84693
v -14.6 0 60
v -14.6 6.4 60
v -30.4 0 60
v -30.36955 0 59.84693
v -30.4 6.4 60
v -30.36955 6.369552 59.84693
v -30.28284 0 59.71716
v -30.28284 6.282843 59.71716
v -30.15307 0 59.63045
v -30.15307 6.153073 59.63045
v -30 0 59.6
v -30 6 59.6
v -29.84693 0 59.63045
v -29.84693 5.846927 59.63045
v -29.71716 0 59.71716
v -29.71716 5.717157 59.71716
v -29.63045 0 59.84693
v -29.63045 5.630448 59.84693
v -29.6 0 60
v -29.6 5.6 60
v -29.63045 0 60.15307
v -29.63045 5.630448 60.15307
v -29.71716 0 60.28284
v -29.71716 5.717157 60.28284
v -29.84693 0 60.36955
v -29.84693 5.846927 60.36955
v -30 0 60.4
v -30 6 60.4

vt 0.003906278 0.2101468
vt 0.4895088 0.2101468
vt 0.00390625 0.5743486
vt 0.4895088 0.5743486
vt 0.4895088 0.9424568
vt 0.00390625 0.5782549
vt 0.4895087 0.5782549
vt 0.003906304 0.9424568
vt 0.979018 0.00390625
vt 0.9790176 0.2062407
vt 0.4934153 0.2062407
vt 0.4934157 0.00390625
vt 0.489509 0.2062405
vt 0.003906317 0.2062405
vt 0.00390625 0.00390625
vt 0.489509 0.00390625
vt 0.8576171 0.3639208
vt 0.4934151 0.3639208
vt 0.4934151 0.2101468
vt 0.8576171 0.2101468
vt 0.8576171 0.3678271
vt 0.8576168 0.5216013
vt 0.4934151 0.5216013
vt 0.4934154 0.3678271
vt 0.4934151 0.6304405
vt 0.6148157 0.6790008
vt 0.4934151 0.6790007
vt 0.6148157 0.6304406
vt 0.4934151 0.5255075
vt 0.6148157 0.5740678
vt 0.4934151 0.5740678
vt 0.6148157 0.5255075
vt 0.6148156 0.7314673
vt 0.4934151 0.7314673
vt 0.6148157 0.682907
vt 0.4934151 0.682907
vt 0.6148156 0.7839338
vt 0.4934151 0.7839339
vt 0.6148157 0.7353736
vt 0.4934151 0.7353736
vt 0.5944417 0.888867
vt 0.5458815 0.888867
vt 0.5458815 0.8403066
vt 0.5944417 0.8403066
vt 0.5944418 0.7878402
vt 0.5944418 0.8364004
vt 0.5458815 0.8364004
vt 0.5458815 0.7878402
vt 0.7401227 0.5255075
vt 0.618722 0.5740678
vt 0.6187221 0.5255075
vt 0.7401226 0.5740678
vt 0.8654296 0.5255075
vt 0.8654295 0.5740678
vt 0.7440289 0.5740678
vt 0.744029 0.5255075
vt 0.8615233 0.3678271
vt 0.982924 0.4163873
vt 0.8615233 0.4163873
vt 0.982924 0.3678271
vt 0.5419753 0.7878402
vt 0.5419753 0.8364004
vt 0.4934151 0.8364004
vt 0.4934151 0.7878402
vt 0.5419753 0.888867
vt 0.4934151 0.888867
vt 0.4934151 0.8403066
vt 0.5419753 0.8403066
vt 0.8615233 0.5213202
vt 0.8615233 0.4727601
vt 0.982924 0.5213202
vt 0.982924 0.4727601
vt 0.8615233 0.4202936
vt 0.982924 0.4202936
vt 0.982924 0.4688538
vt 0.8615233 0.4688538
vt 0.9907364 0.5740678
vt 0.8693358 0.5740678
vt 0.9907365 0.5255075
vt 0.8693359 0.5255075
vt 0.8615234 0.2752632
vt 0.9829241 0.3238234
vt 0.8615234 0.3238234
vt 0.982924 0.2752632
vt 0.6148157 0.6265343
vt 0.4934151 0.6265343
vt 0.6148157 0.577974
vt 0.4934151 0.577974
vt 0.4696474 0.9527956
vt 0.4696474 0.9540588
vt 0.4178498 0.9527956
vt 0.4180962 0.9540588
vt 0.4696474 0.955322
vt 0.418798 0.955322
vt 0.00390625 0.9468515
vt 0.005163172 0.9467292
vt 0.008830247 0.9974502
vt 0.009975424 0.9961898
vt 0.00645326 0.9466042
vt 0.01112808 0.9949053
vt 0.007710367 0.9464829
vt 0.01227405 0.9936391
vt 0.00893583 0.9463642
vt 0.01341345 0.9923971
vt 0.8615234 0.3481737
vt 0.8615234 0.3469106
vt 0.9077945 0.3481737
vt 0.9070927 0.3469106
vt 0.8615234 0.3456474
vt 0.9068463 0.3456474
vt 0.8615234 0.3443843
vt 0.9070927 0.3443843
vt 0.8615234 0.3431211
vt 0.9077945 0.3431211
vt 0.9895763 0.2101468
vt 0.9908274 0.2102542
vt 0.9856429 0.2559752
vt 0.986801 0.2572438
vt 0.9920483 0.2103585
vt 0.9879536 0.2584918
vt 0.8615234 0.2103585
vt 0.862775 0.210253
vt 0.8655791 0.2584776
vt 0.8667392 0.2572078
vt 0.863995 0.2101498
vt 0.867891 0.2559619
vt 0.4641209 0.9900112
vt 0.4641209 0.9912743
vt 0.4178498 0.9900112
vt 0.4185516 0.9912743
vt 0.4641209 0.9925374
vt 0.418798 0.9925374
vt 0.4641209 0.9938006
vt 0.4185516 0.9938006
vt 0.4641209 0.9950638
vt 0.4178498 0.9950638
vt 0.1347261 0.9463631
vt 0.135983 0.9464856
vt 0.1302379 0.9924051
vt 0.1313848 0.9936695
vt 0.1372092 0.9466047
vt 0.1325247 0.9949135
vt 0.1384665 0.9467263
vt 0.1336706 0.9961752
vt 0.1397562 0.9468515
vt 0.134821 0.9974587
vt 0.4178498 0.9681871
vt 0.4178498 0.966924
vt 0.4686992 0.9681872
vt 0.469401 0.966924
vt 0.4178498 0.9656608
vt 0.4696474 0.9656608
vt 0.2834185 0.9465748
vt 0.2846702 0.9464693
vt 0.2874743 0.9946939
vt 0.2886344 0.9934241
vt 0.2858901 0.9463661
vt 0.2897862 0.9921782
vt 0.4178498 0.9861049
vt 0.4178498 0.9848417
vt 0.4641209 0.9861049
vt 0.4634191 0.9848417
vt 0.4178498 0.9835786
vt 0.4631727 0.9835786
vt 0.4178498 0.9823154
vt 0.4634191 0.9823154
vt 0.4178498 0.9810523
vt 0.4641209 0.9810523
vt 0.2744821 0.9463631
vt 0.275739 0.9464856
vt 0.2699941 0.9924051
vt 0.271141 0.9936695
vt 0.2769653 0.9466047
vt 0.2722808 0.9949135
vt 0.2782226 0.9467263
vt 0.2734268 0.9961752
vt 0.2795123 0.9468515
vt 0.2745772 0.9974587
vt 0.4696474 0.9592282
vt 0.4696474 0.9604914
vt 0.418798 0.9592282
vt 0.4180962 0.9604914
vt 0.4696474 0.9617546
vt 0.4178498 0.9617545
vt 0.4178498 0.9488894
vt 0.4178498 0.9476262
vt 0.4696474 0.9488894
vt 0.469401 0.9476262
vt 0.4178498 0.9463631
vt 0.4686992 0.9463631
vt 0.1436625 0.9468515
vt 0.1449194 0.9467292
vt 0.1485864 0.9974502
vt 0.1497316 0.9961897
vt 0.1462095 0.9466042
vt 0.1508842 0.9949052
vt 0.1474666 0.9464829
vt 0.1520302 0.9936391
vt 0.148692 0.9463642
vt 0.1531696 0.9923971
vt 0.4641209 0.9720934
vt 0.4641209 0.9733565
vt 0.4178498 0.9720934
vt 0.4185516 0.9733565
vt 0.4641209 0.9746197
vt 0.418798 0.9746197
vt 0.4641209 0.9758828
vt 0.4185516 0.9758828
vt 0.4641209 0.977146
vt 0.4178498 0.977146
vt 0.4114716 0.9463631
vt 0.4127227 0.9464704
vt 0.4075381 0.9921915
vt 0.4086962 0.9934601
vt 0.4139436 0.9465748
vt 0.4098488 0.9947081
vt 0.9893987 0.262398
vt 0.9891523 0.2636612
vt 0.8615234 0.262398
vt 0.8617698 0.2636612
vt 0.9884505 0.2649243
vt 0.8624716 0.2649243
vt 0.8615234 0.3315192
vt 0.8622251 0.330256
vt 0.9783457 0.3315192
vt 0.9776439 0.330256
vt 0.8624716 0.3289928
vt 0.9773975 0.3289928
vt 0.8622251 0.3277297
vt 0.9776439 0.3277297
vt 0.9849356 0.2547019
vt 0.8685985 0.2546888
vt 0.2904937 0.990905
vt 0.4068308 0.9909182
vt 0.8622251 0.3392149
vt 0.8624716 0.3379517
vt 0.9776439 0.3392149
vt 0.9773975 0.3379517
vt 0.8622251 0.3366886
vt 0.9776439 0.3366886
vt 0.8615234 0.3354254
vt 0.9783457 0.3354254
vt 0.9884505 0.2688306
vt 0.9891523 0.2700938
vt 0.8624716 0.2688306
vt 0.8617698 0.2700938
vt 0.9893987 0.2713569
vt 0.8615234 0.2713569

vn 0 1 0
vn 0 -1 0
vn -1 0 0
vn 1 0 0
vn 0 0 1
vn 0 0 -1
vn 0.9807855 0 0.1950889
vn 0.9238799 0 0.3826826
vn 0.7071069 0 0.7071066
vn 0.3826834 0 0.9238795
vn -0.3826834 0 0.9238796
vn -0.707107 0 0.7071066
vn -0.9238799 0 0.3826825
vn -0.9238799 0 -0.3826826
vn -0.707107 0 -0.7071065
vn -0.3826833 0 -0.9238796
vn -0.1950899 0 -0.9807854
vn 0.1950891 0 -0.9807855
vn 0.3826844 0 -0.9238791
vn 0.7071064 0 -0.7071072
vn 0.9238801 0 -0.3826821
vn -0.9807867 0 0.1950831
vn -0.1950949 0 0.9807844
vn 0.9807853 0 -0.1950902
vn -0.9807865 0 -0.1950843
vn 0.1950937 0 0.9807846
vn 0 0.980785 0.1950919
vn 0 0.9238793 0.382684
vn 0 0.7071069 0.7071066
vn 0 0.3826834 0.9238795
vn 0 -0.3826834 0.9238796
vn 0 -0.4429678 0.8965375
vn 0 -0.6587763 0.7523388
vn 0 -0.7523392 0.6587759
vn 0 -0.8965375 0.4429679
vn 0 -0.9238793 0.3826839
vn 0 -0.9238793 -0.3826839
vn 0 -0.707107 -0.7071066
vn 0 -0.3826833 -0.9238796
vn 0 -0.1950899 -0.9807854
vn 0 -0.1950949 0.9807844
vn 0 0.3826831 -0.9238796
vn 0 0.4429659 -0.8965384
vn 0 0.658776 -0.7523391
vn 0 0.7523425 -0.6587722
vn 0 0.8965402 -0.4429623
vn 0 0.923881 -0.3826799
vn 0 0.9807847 -0.1950931

usemtl Map
f 70/140/32 42/104/33 40/102/31
f 70/140/32 68/139/34 42/104/33
f 68/225/34 44/224/35 42/223/33
f 68/225/34 66/226/36 44/224/35
f 130/214/32 86/158/33 84/156/31
f 130/214/32 128/213/34 86/158/33
f 128/213/34 88/233/35 86/158/33
f 128/213/34 126/234/36 88/233/35
f 114/194/43 102/178/44 100/176/42
f 114/194/43 112/193/45 102/178/44
f 112/245/45 104/244/46 102/243/44
f 112/245/45 110/246/47 104/244/46
f 4/4/1 2/2/1 1/1/1
f 1/1/1 3/3/1 4/4/1
f 5/5/2 7/7/2 6/6/2
f 6/6/2 8/8/2 5/5/2
f 6/11/3 7/10/3 1/9/3
f 1/9/3 2/12/3 6/11/3
f 3/15/4 5/14/4 8/13/4
f 8/13/4 4/16/4 3/15/4
f 9/19/5 7/18/5 5/17/5
f 5/17/5 10/20/5 9/19/5
f 8/23/6 6/22/6 11/21/6
f 11/21/6 12/24/6 8/23/6
f 1/25/5 9/27/5 13/26/5
f 13/26/5 14/28/5 1/25/5
f 15/29/5 16/31/5 10/30/5
f 10/30/5 3/32/5 15/29/5
f 18/36/6 17/34/6 11/33/6
f 11/33/6 2/35/6 18/36/6
f 4/40/6 12/38/6 19/37/6
f 19/37/6 20/39/6 4/40/6
f 14/43/3 13/42/3 21/41/3
f 21/41/3 22/44/3 14/43/3
f 23/47/4 16/46/4 15/45/4
f 15/45/4 24/48/4 23/47/4
f 23/49/2 21/51/2 13/50/2
f 13/50/2 16/52/2 23/49/2
f 15/55/1 14/54/1 22/53/1
f 22/53/1 24/56/1 15/55/1
f 22/57/5 21/59/5 23/58/5
f 23/58/5 24/60/5 22/57/5
f 25/63/3 17/62/3 18/61/3
f 18/61/3 26/64/3 25/63/3
f 20/67/4 19/66/4 27/65/4
f 27/65/4 28/68/4 20/67/4
f 19/72/2 17/70/2 25/69/2
f 25/69/2 27/71/2 19/72/2
f 26/75/1 18/74/1 20/73/1
f 20/73/1 28/76/1 26/75/1
f 28/80/6 27/78/6 25/77/6
f 25/77/6 26/79/6 28/80/6
f 14/81/5 13/83/5 16/82/5
f 16/82/5 15/84/5 14/81/5
f 20/88/6 19/86/6 17/85/6
f 17/85/6 18/87/6 20/88/6
f 32/92/8 30/90/8 29/89/7
f 29/89/7 31/91/7 32/92/8
f 34/94/9 33/93/9 30/90/8
f 30/90/8 32/92/8 34/94/9
f 36/98/10 35/96/10 33/95/9
f 33/95/9 34/97/9 36/98/10
f 38/100/5 37/99/5 35/96/10
f 35/96/10 36/98/10 38/100/5
f 40/102/11 39/101/11 37/99/5
f 37/99/5 38/100/5 40/102/11
f 42/104/12 41/103/12 39/101/11
f 39/101/11 40/102/11 42/104/12
f 44/108/13 43/106/13 41/105/12
f 41/105/12 42/107/12 44/108/13
f 46/110/3 45/109/3 43/106/13
f 43/106/13 44/108/13 46/110/3
f 48/112/14 47/111/14 45/109/3
f 45/109/3 46/110/3 48/112/14
f 50/114/15 49/113/15 47/111/14
f 47/111/14 48/112/14 50/114/15
f 52/118/16 51/116/16 49/115/15
f 49/115/15 50/117/15 52/118/16
f 54/120/17 53/119/17 51/116/16
f 51/116/16 52/118/16 54/120/17
f 58/124/19 56/122/19 55/121/18
f 55/121/18 57/123/18 58/124/19
f 60/126/20 59/125/20 56/122/19
f 56/122/19 58/124/19 60/126/20
f 62/130/21 61/128/21 59/127/20
f 59/127/20 60/129/20 62/130/21
f 64/132/4 63/131/4 61/128/21
f 61/128/21 62/130/21 64/132/4
f 66/134/8 65/133/8 63/131/4
f 63/131/4 64/132/4 66/134/8
f 68/136/9 67/135/9 65/133/8
f 65/133/8 66/134/8 68/136/9
f 70/140/10 69/138/10 67/137/9
f 67/137/9 68/139/9 70/140/10
f 72/142/5 71/141/5 69/138/10
f 69/138/10 70/140/10 72/142/5
f 74/144/11 73/143/11 71/141/5
f 71/141/5 72/142/5 74/144/11
f 76/146/12 75/145/12 73/143/11
f 73/143/11 74/144/11 76/146/12
f 78/150/13 77/148/13 75/147/12
f 75/147/12 76/149/12 78/150/13
f 80/152/22 79/151/22 77/148/13
f 77/148/13 78/150/13 80/152/22
f 84/156/11 82/154/11 81/153/23
f 81/153/23 83/155/23 84/156/11
f 86/158/12 85/157/12 82/154/11
f 82/154/11 84/156/11 86/158/12
f 88/162/13 87/160/13 85/159/12
f 85/159/12 86/161/12 88/162/13
f 90/164/3 89/163/3 87/160/13
f 87/160/13 88/162/13 90/164/3
f 92/166/14 91/165/14 89/163/3
f 89/163/3 90/164/3 92/166/14
f 94/168/15 93/167/15 91/165/14
f 91/165/14 92/166/14 94/168/15
f 96/172/16 95/170/16 93/169/15
f 93/169/15 94/171/15 96/172/16
f 98/174/6 97/173/6 95/170/16
f 95/170/16 96/172/16 98/174/6
f 100/176/19 99/175/19 97/173/6
f 97/173/6 98/174/6 100/176/19
f 102/178/20 101/177/20 99/175/19
f 99/175/19 100/176/19 102/178/20
f 104/182/21 103/180/21 101/179/20
f 101/179/20 102/181/20 104/182/21
f 106/184/24 105/183/24 103/180/21
f 103/180/21 104/182/21 106/184/24
f 110/188/14 108/186/14 107/185/25
f 107/185/25 109/187/25 110/188/14
f 112/190/15 111/189/15 108/186/14
f 108/186/14 110/188/14 112/190/15
f 114/194/16 113/192/16 111/191/15
f 111/191/15 112/193/15 114/194/16
f 116/196/6 115/195/6 113/192/16
f 113/192/16 114/194/16 116/196/6
f 118/198/19 117/197/19 115/195/6
f 115/195/6 116/196/6 118/198/19
f 120/200/20 119/199/20 117/197/19
f 117/197/19 118/198/19 120/200/20
f 122/204/21 121/202/21 119/201/20
f 119/201/20 120/203/20 122/204/21
f 124/206/4 123/205/4 121/202/21
f 121/202/21 122/204/21 124/206/4
f 126/208/8 125/207/8 123/205/4
f 123/205/4 124/206/4 126/208/8
f 128/210/9 127/209/9 125/207/8
f 125/207/8 126/208/8 128/210/9
f 130/214/10 129/212/10 127/211/9
f 127/211/9 128/213/9 130/214/10
f 132/216/26 131/215/26 129/212/10
f 129/212/10 130/214/10 132/216/26
f 78/220/28 32/218/28 31/217/27
f 31/217/27 80/219/27 78/220/28
f 76/222/29 34/221/29 32/218/28
f 32/218/28 78/220/28 76/222/29
f 74/144/30 36/98/30 34/97/29
f 34/97/29 76/146/29 74/144/30
f 72/142/5 38/100/5 36/98/30
f 36/98/30 74/144/30 72/142/5
f 70/140/32 40/102/31 38/100/5
f 38/100/5 72/142/5 70/140/32
f 64/228/2 46/227/2 44/224/35
f 44/224/35 66/226/36 64/228/2
f 62/230/37 48/229/37 46/227/2
f 46/227/2 64/228/2 62/230/37
f 60/126/38 50/117/38 48/231/37
f 48/231/37 62/232/37 60/126/38
f 58/124/39 52/118/39 50/117/38
f 50/117/38 60/126/38 58/124/39
f 57/123/40 54/120/40 52/118/39
f 52/118/39 58/124/39 57/123/40
f 130/214/32 84/156/31 83/155/41
f 83/155/41 132/216/41 130/214/32
f 124/238/2 90/236/2 88/235/35
f 88/235/35 126/237/36 124/238/2
f 122/240/37 92/239/37 90/236/2
f 90/236/2 124/238/2 122/240/37
f 120/242/38 94/241/38 92/239/37
f 92/239/37 122/240/37 120/242/38
f 118/198/39 96/172/39 94/171/38
f 94/171/38 120/200/38 118/198/39
f 116/196/6 98/174/6 96/172/39
f 96/172/39 118/198/39 116/196/6
f 114/194/43 100/176/42 98/174/6
f 98/174/6 116/196/6 114/194/43
f 109/248/48 106/247/48 104/244/46
f 104/244/46 110/246/47 109/248/48

